<svg xmlns="http://www.w3.org/2000/svg" viewBox="0 0 200 200">
  <ellipse cx="100" cy="145" rx="45" ry="38" fill="#c68642"/>
  <path d="M 140 130 Q 172 110 170 80" stroke="#c68642" stroke-width="9" fill="none" stroke-linecap="round"/>
  <ellipse cx="80" cy="178" rx="12" ry="7" fill="#a06a30"/>
  <ellipse cx="120" cy="178" rx="12" ry="7" fill="#a06a30"/>
  <ellipse cx="52" cy="92" rx="11" ry="22" fill="#c68642" transform="rotate(-30 52 92)"/>
  <ellipse cx="148" cy="92" rx="11" ry="22" fill="#c68642" transform="rotate(30 148 92)"/>
  <ellipse cx="58" cy="80" rx="15" ry="30" fill="#8b5a2b" transform="rotate(-20 58 80)"/>
  <ellipse cx="142" cy="80" rx="15" ry="30" fill="#8b5a2b" transform="rotate(20 142 80)"/>
  <circle cx="100" cy="82" r="42" fill="#c68642"/>
  <ellipse cx="100" cy="102" rx="22" ry="17" fill="#f0d8b0"/>
  <path d="M 80 75 Q 85 68 90 75" stroke="#222" stroke-width="2.5" fill="none" stroke-linecap="round"/>
  <path d="M 110 75 Q 115 68 120 75" stroke="#222" stroke-width="2.5" fill="none" stroke-linecap="round"/>
  <ellipse cx="100" cy="93" rx="7" ry="5" fill="#222"/>
  <path d="M 92 102 Q 100 116 108 102 Q 100 108 92 102" fill="#ff6f91" stroke="#333" stroke-width="1.5"/>
  <ellipse cx="100" cy="114" rx="5" ry="7" fill="#ff6f91"/>
  <text x="28" y="45" font-size="18" fill="#ffb703">♪</text>
  <text x="160" y="48" font-size="18" fill="#ffb703">♪</text>
</svg>
